<svg xmlns="http://www.w3.org/2000/svg" width="1280" height="640" fill="none"><path fill="#F59A46" d="M0 0h1280v640H0z"/><path fill="#fff" d="M528.83 327.727V367h-25.091v-69.818h23.818v13.273h.727q2.273-6.637 8-10.41 5.773-3.772 13.455-3.772 7.409 0 12.863 3.409 5.5 3.363 8.5 9.273 3.047 5.909 3 13.5V367h-25.091v-39.273q.046-5.181-2.636-8.136-2.637-2.955-7.364-2.955-3.09 0-5.409 1.364-2.273 1.319-3.5 3.818-1.227 2.455-1.272 5.909m77.113 40.364q-6.681 0-11.818-2.182-5.091-2.227-8-6.727t-2.909-11.455q0-5.727 1.954-9.772 1.955-4.092 5.455-6.682 3.5-2.592 8.136-3.955 4.683-1.363 10.091-1.773 5.864-.454 9.409-1.09 3.591-.682 5.182-1.864 1.591-1.227 1.591-3.227v-.182q0-2.727-2.091-4.182t-5.363-1.455q-3.591 0-5.864 1.591-2.228 1.546-2.682 4.773h-23.091q.455-6.363 4.046-11.727 3.636-5.409 10.591-8.637 6.954-3.272 17.363-3.272 7.5 0 13.455 1.772 5.954 1.728 10.136 4.864 4.182 3.091 6.364 7.273 2.227 4.135 2.227 9V367H626.67v-9.818h-.545q-2.091 3.909-5.091 6.318-2.954 2.41-6.773 3.5-3.773 1.09-8.318 1.091m8.182-15.818q2.863 0 5.364-1.182 2.545-1.182 4.136-3.409 1.591-2.228 1.591-5.409v-5.818q-1 .408-2.136.772-1.092.364-2.364.682-1.227.318-2.636.591-1.364.273-2.864.5-2.908.454-4.773 1.5-1.818 1-2.727 2.5-.864 1.455-.864 3.273 0 2.909 2.046 4.454 2.045 1.546 5.227 1.546M662.114 367v-69.818h24.363v13.273h.728q1.908-7.364 6.045-10.773 4.181-3.41 9.773-3.409 1.636 0 3.227.272a20.6 20.6 0 0 1 3.136.682v21.409q-1.863-.636-4.591-.954-2.727-.318-4.681-.318-3.682 0-6.637 1.681-2.908 1.637-4.591 4.637-1.681 2.955-1.681 6.954V367zm71.704 1.091q-6.681 0-11.818-2.182-5.091-2.227-8-6.727t-2.909-11.455q0-5.727 1.954-9.772 1.955-4.092 5.455-6.682 3.5-2.592 8.136-3.955 4.683-1.363 10.091-1.773 5.864-.454 9.409-1.09 3.591-.682 5.182-1.864 1.591-1.227 1.591-3.227v-.182q0-2.727-2.091-4.182t-5.363-1.455q-3.591 0-5.864 1.591-2.227 1.546-2.682 4.773h-23.091q.455-6.363 4.046-11.727 3.636-5.409 10.591-8.637 6.954-3.272 17.363-3.272 7.5 0 13.455 1.772 5.954 1.728 10.136 4.864 4.182 3.091 6.364 7.273 2.227 4.135 2.227 9V367h-23.455v-9.818H754q-2.091 3.909-5.091 6.318-2.954 2.41-6.773 3.5-3.773 1.09-8.318 1.091M742 352.273q2.863 0 5.364-1.182 2.545-1.182 4.136-3.409 1.591-2.228 1.591-5.409v-5.818q-1 .408-2.136.772-1.092.364-2.364.682-1.227.318-2.636.591-1.364.273-2.864.5-2.908.454-4.773 1.5-1.818 1-2.727 2.5-.864 1.455-.864 3.273 0 2.909 2.046 4.454 2.045 1.546 5.227 1.546M497.375 392.455h286.261v8.727H497.375z"/></svg>